<?xml version="1.0" standalone="no"?><!DOCTYPE svg PUBLIC "-//W3C//DTD SVG 1.1//EN" "http://www.w3.org/Graphics/SVG/1.1/DTD/svg11.dtd"><svg t="1556088108267" class="icon" style="" viewBox="0 0 1169 1024" version="1.1" xmlns="http://www.w3.org/2000/svg" p-id="1061" xmlns:xlink="http://www.w3.org/1999/xlink" width="228.3203125" height="200"><defs><style type="text/css"></style></defs><path d="M584.797164 323.856636S703.974793 73.603781 868.927924 73.603781a211.938558 211.938558 0 0 1 157.895235 70.780622c47.993698 53.035053 73.603781 129.865301 73.603781 221.819614a329.502954 329.502954 0 0 1-18.552186 113.531312l50.01024 3.83143a410.769594 410.769594 0 0 0 17.543915-116.959433c0-224.642773-136.721544-342.812131-280.500985-342.812131a277.274518 277.274518 0 0 0-142.771169 40.330839 309.942497 309.942497 0 0 0-64.730997 52.43009c-7.461205 7.864514-14.720756 15.930681-21.778653 24.803466A396.048838 396.048838 0 0 0 584.797164 234.725482C521.881056 88.9295 409.559669 20.165419 301.271367 20.165419v49.00197C464.812918 69.369043 584.797164 323.856636 584.797164 323.856636z" fill="#FE4D3D" p-id="1062"></path><path d="M731.399764 870.944466A980.039386 980.039386 0 0 1 584.797164 947.774714C488.204805 901.39425 68.562426 681.591178 68.562426 368.825522c0-93.567546 25.610083-171.809374 74.208744-226.457661a209.317054 209.317054 0 0 1 157.895234-73.200472V20.165419C156.886963 20.165419 20.165419 142.972824 20.165419 368.825522 20.165419 600.9295 221.819614 782.014967 385.159512 890.101615a1441.827491 1441.827491 0 0 0 199.637652 111.918078A1379.113037 1379.113037 0 0 0 758.62308 907.443876zM695.706971 685.422607h451.503742v48.397007H695.706971z" fill="#FE4D3D" p-id="1063"></path><path d="M897.159512 935.272154V483.768413h48.397006v451.503741z" fill="#FE4D3D" p-id="1064"></path></svg>