<?xml version="1.0" standalone="no"?><!DOCTYPE svg PUBLIC "-//W3C//DTD SVG 1.1//EN" "http://www.w3.org/Graphics/SVG/1.1/DTD/svg11.dtd"><svg class="icon" width="200px" height="199.80px" viewBox="0 0 1025 1024" version="1.1" xmlns="http://www.w3.org/2000/svg"><path fill="#333333" d="M512 0a512 512 0 1 0 512 512A512 512 0 0 0 512 0z m0 967.497143A457.142857 457.142857 0 1 1 967.497143 512 457.142857 457.142857 0 0 1 512 967.497143z m0 0M512 496.274286a198.948571 198.948571 0 1 0-199.68-198.948572A198.765714 198.765714 0 0 0 512 496.274286z m0-343.04a144.091429 144.091429 0 1 1-144.091429 144.091428A144.091429 144.091429 0 0 1 512 153.234286z m0 0M655.908571 491.52a241.92 241.92 0 0 1-289.462857 0A363.702857 363.702857 0 0 0 171.52 698.331429a387.657143 387.657143 0 0 0 679.314286 0 363.702857 363.702857 0 0 0-194.925715-206.811429zM512 844.434286a333.165714 333.165714 0 0 1-278.491429-150.674286 308.48 308.48 0 0 1 129.828572-139.154286 298.24 298.24 0 0 0 297.325714 0 310.857143 310.857143 0 0 1 129.828572 139.154286A333.531429 333.531429 0 0 1 512 844.434286z m0 0" /></svg>